<svg xmlns="http://www.w3.org/2000/svg" xml:space="preserve" style="fill-rule:evenodd;clip-rule:evenodd;stroke-linejoin:round;stroke-miterlimit:2" viewBox="15.57 17.73 68.52 59.48"><path d="M.08 0h.4v-.28h.16c.25 0 .45-.07.45-.26S.89-.8.64-.8H.08V0Zm.56-.32H.48v-.44h.16v.44Z" style="fill-rule:nonzero" transform="translate(26.554 77) scale(20.8333)"/><path d="M.67-.36h.34v.12c0 .185-.16.21-.34.21H.49v-.74h.18c.18 0 .34.025.34.21h.04c0-.215-.17-.25-.38-.25H.49c-.24 0-.44.07-.44.41 0 .34.2.41.44.41h.18c.21 0 .38-.035.38-.25V-.4H.67v.04Z" style="fill-rule:nonzero" transform="translate(49.679 77) scale(20.8333)"/><path d="M.08 0h.4v-.28h.16c.25 0 .45-.07.45-.26S.89-.8.64-.8H.08V0Zm.56-.32H.48v-.44h.16v.44Z" style="fill-rule:nonzero" transform="scale(-20.8333) rotate(60 .323 -4.894)"/><path d="M.67-.36h.34v.12c0 .185-.16.21-.34.21H.49v-.74h.18c.18 0 .34.025.34.21h.04c0-.215-.17-.25-.38-.25H.49c-.24 0-.44.07-.44.41 0 .34.2.41.44.41h.18c.21 0 .38-.035.38-.25V-.4H.67v.04Z" style="fill-rule:nonzero" transform="scale(-20.8333) rotate(60 -.232 -3.933)"/><g><path d="M.08 0h.4v-.28h.16c.25 0 .45-.07.45-.26S.89-.8.64-.8H.08V0Zm.56-.32H.48v-.44h.16v.44Z" style="fill-rule:nonzero" transform="scale(-20.8333) rotate(-60 -1.598 1.198)"/><path d="M.67-.36h.34v.12c0 .185-.16.21-.34.21H.49v-.74h.18c.18 0 .34.025.34.21h.04c0-.215-.17-.25-.38-.25H.49c-.24 0-.44.07-.44.41 0 .34.2.41.44.41h.18c.21 0 .38-.035.38-.25V-.4H.67v.04Z" style="fill-rule:nonzero" transform="scale(-20.8333) rotate(-60 -2.153 .237)"/></g></svg>