<svg xmlns="http://www.w3.org/2000/svg" xml:space="preserve" style="fill-rule:evenodd;clip-rule:evenodd;stroke-linejoin:round;stroke-miterlimit:2" viewBox="15.58 17.73 68.52 59.47"><path d="M37.927 69.999h8.334v-5.834h3.333c5.208 0 9.375-1.456 9.375-5.415 0-3.96-4.167-5.415-9.375-5.415H37.927v16.664Zm11.667-6.664h-3.333v-9.17h3.333v9.17Z" style="fill:url(#a);fill-rule:nonzero" transform="translate(-9.707 7)"/><path d="M73.345 62.499h7.084V65c0 3.855-3.334 4.376-7.084 4.376h-3.75V53.957h3.75c3.75 0 7.084.521 7.084 4.377h.83c0-4.481-3.539-5.208-7.914-5.208h-3.75c-5 0-9.166 1.456-9.166 8.542 0 7.083 4.166 8.539 9.166 8.539h3.75c4.375 0 7.914-.727 7.914-5.207v-3.332h-7.914v.831Z" style="fill:url(#b);fill-rule:nonzero" transform="translate(-9.707 7)"/><path d="M37.927 69.999h8.334v-5.834h3.333c5.208 0 9.375-1.456 9.375-5.415 0-3.96-4.167-5.415-9.375-5.415H37.927v16.664Zm11.667-6.664h-3.333v-9.17h3.333v9.17Z" style="fill:url(#c);fill-rule:nonzero" transform="rotate(-120 56.788 49.353)"/><path d="M73.345 62.499h7.084V65c0 3.855-3.334 4.376-7.084 4.376h-3.75V53.957h3.75c3.75 0 7.084.521 7.084 4.377h.83c0-4.481-3.539-5.208-7.914-5.208h-3.75c-5 0-9.166 1.456-9.166 8.542 0 7.083 4.166 8.539 9.166 8.539h3.75c4.375 0 7.914-.727 7.914-5.207v-3.332h-7.914v.831Z" style="fill:url(#d);fill-rule:nonzero" transform="rotate(-120 56.788 49.353)"/><g><path d="M37.927 69.999h8.334v-5.834h3.333c5.208 0 9.375-1.456 9.375-5.415 0-3.96-4.167-5.415-9.375-5.415H37.927v16.664Zm11.667-6.664h-3.333v-9.17h3.333v9.17Z" style="fill:url(#e);fill-rule:nonzero" transform="rotate(120 52.746 43.749)"/><path d="M73.345 62.499h7.084V65c0 3.855-3.334 4.376-7.084 4.376h-3.75V53.957h3.75c3.75 0 7.084.521 7.084 4.377h.83c0-4.481-3.539-5.208-7.914-5.208h-3.75c-5 0-9.166 1.456-9.166 8.542 0 7.083 4.166 8.539 9.166 8.539h3.75c4.375 0 7.914-.727 7.914-5.207v-3.332h-7.914v.831Z" style="fill:url(#f);fill-rule:nonzero" transform="rotate(120 52.746 43.749)"/></g><defs><linearGradient id="a" x1="0" y1="0" x2="1" y2="0" gradientUnits="userSpaceOnUse" gradientTransform="matrix(45.8333 0 0 27.0833 36.26 60.833)"><stop offset="0" style="stop-color:#00f8ff;stop-opacity:1"/><stop offset="1" style="stop-color:black;stop-opacity:1"/></linearGradient><linearGradient id="b" x1="0" y1="0" x2="1" y2="0" gradientUnits="userSpaceOnUse" gradientTransform="matrix(45.8333 0 0 27.0833 36.26 60.833)"><stop offset="0" style="stop-color:#00f8ff;stop-opacity:1"/><stop offset="1" style="stop-color:black;stop-opacity:1"/></linearGradient><linearGradient id="c" x1="0" y1="0" x2="1" y2="0" gradientUnits="userSpaceOnUse" gradientTransform="matrix(45.8333 0 0 27.0833 36.26 60.833)"><stop offset="0" style="stop-color:#00f8ff;stop-opacity:1"/><stop offset="1" style="stop-color:black;stop-opacity:1"/></linearGradient><linearGradient id="d" x1="0" y1="0" x2="1" y2="0" gradientUnits="userSpaceOnUse" gradientTransform="matrix(45.8333 0 0 27.0833 36.26 60.833)"><stop offset="0" style="stop-color:#00f8ff;stop-opacity:1"/><stop offset="1" style="stop-color:black;stop-opacity:1"/></linearGradient><linearGradient id="e" x1="0" y1="0" x2="1" y2="0" gradientUnits="userSpaceOnUse" gradientTransform="matrix(45.8333 0 0 27.0833 36.26 60.833)"><stop offset="0" style="stop-color:#00f8ff;stop-opacity:1"/><stop offset="1" style="stop-color:black;stop-opacity:1"/></linearGradient><linearGradient id="f" x1="0" y1="0" x2="1" y2="0" gradientUnits="userSpaceOnUse" gradientTransform="matrix(45.8333 0 0 27.0833 36.26 60.833)"><stop offset="0" style="stop-color:#00f8ff;stop-opacity:1"/><stop offset="1" style="stop-color:black;stop-opacity:1"/></linearGradient></defs></svg>